<mxfile host="app.diagrams.net" modified="2023-04-01T08:57:08.120Z" agent="Mozilla/5.0 (X11; Linux x86_64) AppleWebKit/537.36 (KHTML, like Gecko) Chrome/111.0.0.0 Safari/537.36" etag="gcJ6jXzHWeQUNB8bkKfy" version="21.1.1" type="device">
  <diagram id="C5RBs43oDa-KdzZeNtuy" name="Page-1">
    <mxGraphModel dx="1050" dy="635" grid="1" gridSize="10" guides="1" tooltips="1" connect="1" arrows="1" fold="1" page="1" pageScale="1" pageWidth="827" pageHeight="1169" math="0" shadow="0">
      <root>
        <mxCell id="WIyWlLk6GJQsqaUBKTNV-0" />
        <mxCell id="WIyWlLk6GJQsqaUBKTNV-1" parent="WIyWlLk6GJQsqaUBKTNV-0" />
        <mxCell id="EBim3q5jRKhAsd9TOiu2-18" value="User" style="rounded=0;whiteSpace=wrap;html=1;fontSize=16;fillColor=#dae8fc;strokeColor=#000000;" vertex="1" parent="WIyWlLk6GJQsqaUBKTNV-1">
          <mxGeometry x="160" y="160" width="160" height="30" as="geometry" />
        </mxCell>
        <mxCell id="EBim3q5jRKhAsd9TOiu2-19" value="user_id(PK)&lt;br&gt;email&lt;br&gt;pasword" style="rounded=0;whiteSpace=wrap;html=1;fontSize=16;" vertex="1" parent="WIyWlLk6GJQsqaUBKTNV-1">
          <mxGeometry x="160" y="190" width="160" height="60" as="geometry" />
        </mxCell>
        <mxCell id="EBim3q5jRKhAsd9TOiu2-20" value="Resume" style="rounded=0;whiteSpace=wrap;html=1;fontSize=16;fillColor=#dae8fc;strokeColor=#000000;" vertex="1" parent="WIyWlLk6GJQsqaUBKTNV-1">
          <mxGeometry x="260" y="290" width="160" height="30" as="geometry" />
        </mxCell>
        <mxCell id="EBim3q5jRKhAsd9TOiu2-21" value="resume_id(PK)&lt;br&gt;profile_id(FK)&lt;br&gt;resume_name&lt;br&gt;resume_format" style="rounded=0;whiteSpace=wrap;html=1;fontSize=16;" vertex="1" parent="WIyWlLk6GJQsqaUBKTNV-1">
          <mxGeometry x="260" y="320" width="160" height="80" as="geometry" />
        </mxCell>
        <mxCell id="EBim3q5jRKhAsd9TOiu2-22" value="Profile" style="rounded=0;whiteSpace=wrap;html=1;fontSize=16;fillColor=#dae8fc;strokeColor=#000000;" vertex="1" parent="WIyWlLk6GJQsqaUBKTNV-1">
          <mxGeometry x="60" y="290" width="160" height="30" as="geometry" />
        </mxCell>
        <mxCell id="EBim3q5jRKhAsd9TOiu2-23" value="profile_id(PK)&lt;br&gt;user_id(FK)&lt;br&gt;headline&lt;br&gt;education&lt;br&gt;projects&lt;br&gt;experience" style="rounded=0;whiteSpace=wrap;html=1;fontSize=16;" vertex="1" parent="WIyWlLk6GJQsqaUBKTNV-1">
          <mxGeometry x="60" y="320" width="160" height="120" as="geometry" />
        </mxCell>
        <mxCell id="EBim3q5jRKhAsd9TOiu2-24" value="Job Search" style="rounded=0;whiteSpace=wrap;html=1;fontSize=16;fillColor=#dae8fc;strokeColor=#000000;" vertex="1" parent="WIyWlLk6GJQsqaUBKTNV-1">
          <mxGeometry x="60" y="480" width="160" height="30" as="geometry" />
        </mxCell>
        <mxCell id="EBim3q5jRKhAsd9TOiu2-25" value="platform_id(PK)&lt;br&gt;name&lt;br&gt;url" style="rounded=0;whiteSpace=wrap;html=1;fontSize=16;" vertex="1" parent="WIyWlLk6GJQsqaUBKTNV-1">
          <mxGeometry x="60" y="510" width="160" height="70" as="geometry" />
        </mxCell>
        <mxCell id="EBim3q5jRKhAsd9TOiu2-26" value="Profile_platform" style="rounded=0;whiteSpace=wrap;html=1;fontSize=16;fillColor=#dae8fc;strokeColor=#000000;" vertex="1" parent="WIyWlLk6GJQsqaUBKTNV-1">
          <mxGeometry x="55" y="620" width="170" height="30" as="geometry" />
        </mxCell>
        <mxCell id="EBim3q5jRKhAsd9TOiu2-27" value="profile_platform_id(PK)&lt;br&gt;profile_id(FK)&lt;br&gt;platform_id(FK)&lt;br&gt;visibility&lt;br&gt;username&lt;br&gt;password" style="rounded=0;whiteSpace=wrap;html=1;fontSize=16;" vertex="1" parent="WIyWlLk6GJQsqaUBKTNV-1">
          <mxGeometry x="55" y="650" width="170" height="120" as="geometry" />
        </mxCell>
        <mxCell id="EBim3q5jRKhAsd9TOiu2-28" value="" style="endArrow=block;html=1;rounded=0;fontSize=12;startSize=8;endSize=8;curved=1;exitX=0.133;exitY=1.023;exitDx=0;exitDy=0;entryX=0.75;entryY=0;entryDx=0;entryDy=0;exitPerimeter=0;dashed=1;endFill=1;" edge="1" parent="WIyWlLk6GJQsqaUBKTNV-1" source="EBim3q5jRKhAsd9TOiu2-19" target="EBim3q5jRKhAsd9TOiu2-22">
          <mxGeometry width="50" height="50" relative="1" as="geometry">
            <mxPoint x="30" y="310" as="sourcePoint" />
            <mxPoint x="80" y="260" as="targetPoint" />
          </mxGeometry>
        </mxCell>
        <mxCell id="EBim3q5jRKhAsd9TOiu2-29" value="" style="endArrow=block;html=1;rounded=0;fontSize=12;startSize=8;endSize=8;curved=1;exitX=0.75;exitY=1;exitDx=0;exitDy=0;dashed=1;endFill=1;" edge="1" parent="WIyWlLk6GJQsqaUBKTNV-1" source="EBim3q5jRKhAsd9TOiu2-19">
          <mxGeometry width="50" height="50" relative="1" as="geometry">
            <mxPoint x="310" y="290" as="sourcePoint" />
            <mxPoint x="280" y="290" as="targetPoint" />
          </mxGeometry>
        </mxCell>
        <mxCell id="EBim3q5jRKhAsd9TOiu2-30" value="" style="endArrow=block;html=1;rounded=0;fontSize=12;startSize=8;endSize=8;curved=1;exitX=0.5;exitY=1;exitDx=0;exitDy=0;entryX=0.5;entryY=0;entryDx=0;entryDy=0;dashed=1;endFill=1;" edge="1" parent="WIyWlLk6GJQsqaUBKTNV-1" source="EBim3q5jRKhAsd9TOiu2-23" target="EBim3q5jRKhAsd9TOiu2-24">
          <mxGeometry width="50" height="50" relative="1" as="geometry">
            <mxPoint x="170" y="500" as="sourcePoint" />
            <mxPoint x="220" y="450" as="targetPoint" />
          </mxGeometry>
        </mxCell>
        <mxCell id="EBim3q5jRKhAsd9TOiu2-31" value="" style="endArrow=block;html=1;rounded=0;fontSize=12;startSize=8;endSize=8;curved=1;exitX=0.5;exitY=1;exitDx=0;exitDy=0;dashed=1;endFill=1;" edge="1" parent="WIyWlLk6GJQsqaUBKTNV-1" source="EBim3q5jRKhAsd9TOiu2-25" target="EBim3q5jRKhAsd9TOiu2-26">
          <mxGeometry width="50" height="50" relative="1" as="geometry">
            <mxPoint x="60" y="620" as="sourcePoint" />
            <mxPoint x="110" y="570" as="targetPoint" />
          </mxGeometry>
        </mxCell>
      </root>
    </mxGraphModel>
  </diagram>
</mxfile>
